# 3ds Max Wavefront OBJ Exporter v0.97b - (c)2007 guruware
# File Created: 01.08.2014 11:12:00

#
# object Armor_A
#

v  -0.1010 0.4119 0.0467
v  -0.0031 0.4119 0.0647
v  -0.0031 0.6717 0.0442
v  -0.1281 0.6717 0.0261
v  -0.0031 0.3324 0.0029
v  -0.0031 0.3672 0.0351
v  -0.0649 0.3672 0.0172
v  -0.0786 0.3324 -0.0151
v  -0.1328 1.0097 -0.0151
v  -0.1872 0.9435 -0.0151
v  -0.1552 0.9315 0.0937
v  -0.1196 0.9749 0.0453
v  -0.1587 0.6710 -0.0151
v  -0.1416 0.7314 0.0625
v  -0.1302 0.3985 -0.0151
v  -0.0907 0.2982 0.0041
v  -0.0031 0.2982 0.0222
v  -0.0031 1.0480 0.0223
v  -0.2161 0.9748 0.0041
v  -0.1534 1.0480 0.0041
v  -0.1503 0.3715 0.0041
v  -0.0989 0.2640 -0.0464
v  -0.0031 0.2640 -0.0283
v  -0.2358 1.0023 -0.0464
v  -0.1639 0.3440 -0.0464
v  -0.1672 1.0822 -0.0464
v  -0.0031 0.6751 -0.0015
v  -0.0031 0.6774 -0.0013
v  -0.0031 1.0822 -0.0282
v  -0.0031 0.6667 -0.0018
v  -0.0031 1.0097 0.0031
v  -0.0031 0.9749 0.0635
v  -0.0031 0.9315 0.1119
v  -0.0031 0.7314 0.0806
v  0.0948 0.4119 0.0467
v  0.1219 0.6717 0.0261
v  0.0725 0.3324 -0.0151
v  0.0588 0.3672 0.0172
v  0.1266 1.0097 -0.0151
v  0.1134 0.9749 0.0453
v  0.1490 0.9315 0.0937
v  0.1810 0.9435 -0.0151
v  0.1525 0.6710 -0.0151
v  0.1355 0.7314 0.0625
v  0.1240 0.3985 -0.0151
v  0.2100 0.9748 0.0041
v  0.1472 1.0480 0.0041
v  0.0845 0.2982 0.0041
v  0.1441 0.3715 0.0041
v  0.0927 0.2640 -0.0464
v  0.1577 0.3440 -0.0464
v  0.2296 1.0023 -0.0464
v  0.1611 1.0822 -0.0464
# 53 vertices

vn -0.5203 -0.3241 0.7901
vn 0.0000 -0.2503 0.9682
vn 0.0000 -0.2319 0.9727
vn -0.4879 -0.2839 0.8254
vn 0.0000 -0.6399 0.7685
vn 0.0000 -0.5869 0.8097
vn -0.3128 -0.5920 0.7427
vn -0.3630 -0.5241 0.7704
vn -0.3641 0.7975 0.4811
vn -0.9054 0.2785 0.3205
vn -0.5770 0.2893 0.7637
vn -0.1474 0.7978 0.5847
vn -0.8358 -0.1717 0.5215
vn -0.5779 -0.2928 0.7618
vn -0.7485 -0.3742 0.5474
vn -0.3336 -0.4796 0.8116
vn 0.0000 -0.4345 0.9007
vn -0.0000 0.4467 0.8947
vn -0.6177 0.1181 0.7775
vn -0.2790 0.5035 0.8177
vn -0.5707 -0.1926 0.7983
vn -0.3931 -0.7112 0.5828
vn 0.0000 -0.8073 0.5901
vn -0.7947 0.3168 0.5179
vn -0.7961 -0.3928 0.4603
vn -0.3620 0.7011 0.6143
vn 0.0000 0.0213 -0.9998
vn 0.1209 0.0664 -0.9904
vn 0.1098 -0.0493 -0.9927
vn -0.9438 -0.0604 -0.3250
vn 0.0915 -0.0657 -0.9936
vn -0.0000 -0.0614 -0.9981
vn 0.1407 0.0682 -0.9877
vn 0.0000 0.0417 -0.9991
vn -0.0000 0.8494 0.5277
vn -0.0000 0.7872 0.6167
vn -0.0000 0.3199 0.9474
vn -0.0000 0.8085 0.5885
vn 0.0000 -0.3250 0.9457
vn 0.0000 0.0616 -0.9981
vn 0.5203 -0.3241 0.7901
vn 0.4879 -0.2839 0.8254
vn 0.3630 -0.5241 0.7704
vn 0.3128 -0.5920 0.7427
vn 0.3641 0.7975 0.4811
vn 0.1474 0.7978 0.5847
vn 0.5770 0.2893 0.7637
vn 0.9054 0.2785 0.3205
vn 0.8358 -0.1717 0.5215
vn 0.5779 -0.2928 0.7618
vn 0.7485 -0.3742 0.5474
vn 0.6177 0.1181 0.7775
vn 0.2790 0.5035 0.8177
vn 0.3336 -0.4796 0.8116
vn 0.5707 -0.1926 0.7983
vn 0.3931 -0.7112 0.5828
vn 0.7961 -0.3928 0.4603
vn 0.7946 0.3168 0.5179
vn 0.3620 0.7011 0.6143
vn 0.9438 -0.0604 -0.3250
vn -0.1098 -0.0493 -0.9927
vn -0.1209 0.0664 -0.9904
vn -0.0915 -0.0657 -0.9936
vn -0.1407 0.0682 -0.9877
# 64 vertex normals

vt 0.6892 0.9394 0.0000
vt 0.6606 0.9394 0.0000
vt 0.6606 0.8646 0.0000
vt 0.6971 0.8646 0.0000
vt 0.6606 0.9623 0.0000
vt 0.6606 0.9523 0.0000
vt 0.6787 0.9523 0.0000
vt 0.6827 0.9623 0.0000
vt 0.7076 0.7621 0.0000
vt 0.7259 0.7695 0.0000
vt 0.7050 0.7898 0.0000
vt 0.6962 0.7758 0.0000
vt 0.7170 0.8595 0.0000
vt 0.7010 0.8475 0.0000
vt 0.7336 0.7832 0.0000
vt 0.7045 0.9502 0.0000
vt 0.6856 0.9615 0.0000
vt 0.2706 0.3707 0.0000
vt 0.2460 0.3707 0.0000
vt 0.2460 0.1634 0.0000
vt 0.3057 0.1837 0.0000
vt 0.2881 0.1634 0.0000
vt 0.2872 0.3505 0.0000
vt 0.2752 0.3862 0.0000
vt 0.2484 0.3866 0.0000
vt 0.3196 0.1775 0.0000
vt 0.2995 0.3595 0.0000
vt 0.2968 0.3628 0.0000
vt 0.2786 0.3849 0.0000
vt 0.2972 0.1495 0.0000
vt 0.3164 0.1716 0.0000
vt 0.3632 0.2812 0.0000
vt 0.3636 0.2794 0.0000
vt 0.3432 0.1601 0.0000
vt 0.3637 0.2789 0.0000
vt 0.3881 0.1702 0.0000
vt 0.3124 0.3851 0.0000
vt 0.3630 0.2823 0.0000
vt 0.7112 0.8699 0.0000
vt 0.7058 0.9438 0.0000
vt 0.7146 0.8650 0.0000
vt 0.6638 0.7607 0.0000
vt 0.7018 0.7600 0.0000
vt 0.6620 0.7769 0.0000
vt 0.6606 0.7898 0.0000
vt 0.2475 0.1505 0.0000
vt 0.2934 0.1509 0.0000
vt 0.6606 0.8474 0.0000
vt 0.3386 0.3909 0.0000
# 49 texture coords

g Armor_A
s 1
f 1/1/1 2/2/2 3/3/3 4/4/4 
f 5/5/5 6/6/6 7/7/7 8/8/8 
f 9/9/9 10/10/10 11/11/11 12/12/12 
f 13/13/13 14/14/14 11/11/11 10/15/10 
f 15/16/15 8/17/8 7/7/7 1/1/1 
f 7/7/7 6/6/6 2/2/2 1/1/1 
f 16/18/16 17/19/17 18/20/18 19/21/19 
f 18/20/18 20/22/20 19/21/19 
f 21/23/21 16/18/16 19/21/19 
f 16/18/16 22/24/22 23/25/23 17/19/17 
f 19/21/19 24/26/24 25/27/25 21/23/21 
f 16/18/16 21/23/21 25/28/25 22/29/22 
f 26/30/26 24/31/24 19/21/19 20/22/20 
s 2
f 27/32/27 25/27/28 24/26/29 28/33/30 
f 28/33/30 24/26/29 26/34/31 27/35/27 
f 26/34/31 29/36/32 27/35/27 
f 22/37/33 25/27/28 27/32/27 30/38/34 
s 1
f 13/39/13 15/40/15 1/1/1 4/4/4 
f 13/41/13 4/4/4 14/14/14 
f 31/42/35 9/43/9 12/12/12 32/44/36 
f 12/12/12 11/11/11 33/45/37 32/44/36 
f 29/46/38 26/47/26 20/22/20 18/20/18 
f 34/48/39 14/14/14 4/4/4 3/3/3 
f 33/45/37 11/11/11 14/14/14 34/48/39 
s 2
f 23/49/40 22/37/33 30/38/34 
s 1
f 35/1/41 36/4/42 3/3/3 2/2/2 
f 5/5/5 37/8/43 38/7/44 6/6/6 
f 39/9/45 40/12/46 41/11/47 42/10/48 
f 43/13/49 42/15/48 41/11/47 44/14/50 
f 45/16/51 35/1/41 38/7/44 37/17/43 
f 38/7/44 35/1/41 2/2/2 6/6/6 
f 46/21/52 47/22/53 18/20/18 48/18/54 
f 18/20/18 17/19/17 48/18/54 
f 49/23/55 46/21/52 48/18/54 
f 48/18/54 17/19/17 23/25/23 50/24/56 
f 46/21/52 49/23/55 51/27/57 52/26/58 
f 48/18/54 50/29/56 51/28/57 49/23/55 
f 53/30/59 47/22/53 46/21/52 52/31/58 
s 2
f 27/32/27 28/33/60 52/26/61 51/27/62 
f 28/33/60 27/35/27 53/34/63 52/26/61 
f 53/34/63 27/35/27 29/36/32 
f 50/37/64 30/38/34 27/32/27 51/27/62 
s 1
f 43/39/49 36/4/42 35/1/41 45/40/51 
f 43/41/49 44/14/50 36/4/42 
f 31/42/35 32/44/36 40/12/46 39/43/45 
f 40/12/46 32/44/36 33/45/37 41/11/47 
f 29/46/38 18/20/18 47/22/53 53/47/59 
f 34/48/39 3/3/3 36/4/42 44/14/50 
f 33/45/37 34/48/39 44/14/50 41/11/47 
s 2
f 23/49/40 30/38/34 50/37/64 
# 40 polygons - 10 triangles

