# 3ds Max Wavefront OBJ Exporter v0.97b - (c)2007 guruware
# File Created: 31.07.2014 12:17:44

#
# object pckup_health_lg
#

v  0.6654 1.1989 -0.1126
v  0.5673 1.2162 -0.1574
v  0.5824 1.3020 -0.1574
v  0.6805 1.2847 -0.1126
v  0.4692 1.2335 -0.1126
v  0.4843 1.3193 -0.1126
v  0.4300 1.2404 -0.0081
v  0.4451 1.3262 -0.0081
v  0.7197 1.2778 -0.0081
v  0.7046 1.1919 -0.0081
v  0.6654 1.1989 0.0963
v  0.6805 1.2847 0.0963
v  0.5824 1.3020 0.1412
v  0.5673 1.2162 0.1412
v  0.4843 1.3193 0.0963
v  0.4692 1.2335 0.0963
v  0.5271 0.0495 0.0000
v  -0.3046 0.1961 -0.0000
v  -0.3046 0.1961 -0.1834
v  0.5271 0.0495 -0.1834
v  -0.2735 1.3890 -0.1834
v  -0.2735 1.3890 -0.0000
v  0.7321 1.2117 0.0000
v  0.7321 1.2117 -0.1834
v  -0.4049 0.3505 -0.1834
v  0.6683 0.6484 -0.1834
v  -0.3214 0.8242 -0.1834
v  0.5677 0.0779 -0.1834
v  -0.4049 0.3505 -0.0000
v  -0.3214 0.8242 -0.0000
v  0.5677 0.0779 0.0000
v  -0.3141 1.3606 -0.1834
v  -0.3141 1.3606 -0.0000
v  0.4314 0.1775 -0.2228
v  -0.2600 0.2994 -0.2228
v  -0.3020 0.3618 -0.2228
v  -0.0931 1.2460 -0.2228
v  -0.1539 1.2018 -0.2228
v  0.5984 1.1241 -0.2228
v  0.6403 1.0618 -0.2228
v  0.4922 0.2217 -0.2228
v  0.5298 0.1983 -0.1834
v  0.4415 0.1340 -0.1834
v  -0.2844 0.2620 -0.1834
v  -0.3454 0.3526 -0.1834
v  -0.1915 1.2253 -0.1834
v  -0.1032 1.2895 -0.1834
v  0.6227 1.1616 -0.1834
v  0.6837 1.0710 -0.1834
v  -0.3915 0.9218 -0.1834
v  0.6830 0.7317 -0.1834
v  0.6830 0.7317 0.0000
v  0.6683 0.6484 0.0000
v  0.7605 1.1711 -0.1834
v  0.7605 1.1711 0.0000
v  -0.4278 0.5052 -0.0000
v  -0.3532 0.9286 -0.0000
v  -0.3532 0.9286 -0.0774
v  -0.4278 0.5052 -0.0774
v  -0.3596 0.4414 -0.0000
v  -0.3596 0.4414 -0.0774
v  -0.2761 0.9150 -0.0774
v  -0.1745 1.4929 -0.0000
v  -0.2442 1.4881 -0.0000
v  -0.2442 1.4881 -0.1109
v  -0.1745 1.4929 -0.1109
v  -0.2626 1.5240 -0.1109
v  -0.2626 1.5240 -0.0000
v  -0.1929 1.5288 -0.0000
v  -0.1929 1.5288 -0.1109
v  -0.2443 1.4893 -0.1470
v  -0.1746 1.4941 -0.1470
v  -0.1956 1.3967 -0.1109
v  -0.0947 1.3495 -0.1109
v  -0.1956 1.3973 -0.1470
v  -0.0947 1.3495 -0.1470
v  -0.2456 1.3391 -0.1470
v  -0.2456 1.3391 -0.1109
v  -0.3915 0.9218 -0.0000
v  0.5271 0.0495 0.1834
v  -0.3046 0.1961 0.1834
v  -0.2735 1.3890 0.1834
v  0.7321 1.2117 0.1834
v  0.6683 0.6484 0.1834
v  -0.3214 0.8242 0.1834
v  -0.4049 0.3505 0.1834
v  0.5677 0.0779 0.1834
v  -0.3141 1.3606 0.1834
v  0.6403 1.0618 0.2228
v  0.5984 1.1241 0.2228
v  -0.0931 1.2460 0.2228
v  0.4314 0.1775 0.2228
v  -0.1539 1.2018 0.2228
v  -0.3020 0.3618 0.2228
v  -0.2600 0.2994 0.2228
v  0.4922 0.2217 0.2228
v  0.5298 0.1983 0.1834
v  0.4415 0.1340 0.1834
v  -0.2844 0.2620 0.1834
v  -0.3454 0.3526 0.1834
v  -0.1915 1.2253 0.1834
v  -0.1032 1.2895 0.1834
v  0.6227 1.1616 0.1834
v  0.6837 1.0710 0.1834
v  -0.3915 0.9218 0.1834
v  0.6830 0.7317 0.1834
v  0.7605 1.1711 0.1834
v  -0.4278 0.5052 0.0774
v  -0.3532 0.9286 0.0774
v  -0.3596 0.4414 0.0774
v  -0.2761 0.9150 0.0774
v  -0.1745 1.4929 0.1109
v  -0.2442 1.4881 0.1109
v  -0.2626 1.5240 0.1109
v  -0.1929 1.5288 0.1109
v  -0.2443 1.4893 0.1470
v  -0.1746 1.4941 0.1470
v  -0.0947 1.3495 0.1109
v  -0.1956 1.3967 0.1109
v  -0.1956 1.3973 0.1470
v  -0.0947 1.3495 0.1470
v  -0.2456 1.3391 0.1470
v  -0.2456 1.3391 0.1109
# 123 vertices

vn 0.6152 -0.1085 -0.7809
vn -0.0000 0.0000 -1.0000
vn -0.6152 0.1085 -0.7809
vn -0.9848 0.1736 -0.0000
vn 0.9848 -0.1736 0.0000
vn 0.1736 0.9848 0.0000
vn 0.6152 -0.1085 0.7809
vn -0.0000 0.0000 1.0000
vn -0.6152 0.1085 0.7809
vn -0.1736 -0.9848 -0.0000
vn 0.0000 0.0000 -1.0000
vn -0.9750 -0.2223 -0.0000
vn 0.5736 -0.8192 0.0000
vn -0.5736 0.8192 -0.0000
vn 0.0000 -0.0000 -1.0000
vn 0.3189 -0.4383 -0.8403
vn -0.0941 -0.5338 -0.8403
vn -0.4496 -0.3028 -0.8403
vn -0.5338 0.0941 -0.8403
vn -0.3189 0.4383 -0.8403
vn 0.0941 0.5338 -0.8403
vn 0.4496 0.3028 -0.8403
vn 0.5338 -0.0941 -0.8403
vn -0.6835 -0.7300 -0.0000
vn 0.0686 -0.9976 0.0000
vn -0.0686 0.9976 -0.0000
vn -0.8893 -0.4574 -0.0000
vn -0.8891 -0.4573 -0.0194
vn 0.8891 0.4573 0.0194
vn -0.8835 -0.4681 -0.0150
vn 0.8746 0.4848 0.0104
vn -0.0386 0.5604 -0.8273
vn -0.7567 0.6537 0.0086
vn -0.8387 -0.5446 -0.0000
vn 0.8192 0.5736 0.0000
vn 0.8893 0.4574 0.0000
vn -0.0000 -0.0000 1.0000
vn 0.0000 -0.0000 1.0000
vn 0.3189 -0.4383 0.8403
vn -0.0941 -0.5338 0.8403
vn -0.4496 -0.3028 0.8403
vn -0.5338 0.0941 0.8403
vn -0.3189 0.4383 0.8403
vn 0.0941 0.5338 0.8403
vn 0.4496 0.3028 0.8403
vn 0.5338 -0.0941 0.8403
vn -0.6835 -0.7300 0.0000
vn -0.8891 -0.4573 0.0194
vn 0.8891 0.4573 -0.0194
vn -0.8835 -0.4681 0.0150
vn 0.8746 0.4848 -0.0104
vn -0.0386 0.5604 0.8273
vn -0.7567 0.6537 -0.0086
# 53 vertex normals

vt 0.8100 0.7071 0.0000
vt 0.8459 0.7071 0.0000
vt 0.8459 0.7502 0.0000
vt 0.8100 0.7502 0.0000
vt 0.8819 0.7071 0.0000
vt 0.8819 0.7502 0.0000
vt 0.9256 0.7071 0.0000
vt 0.9256 0.7502 0.0000
vt 0.7687 0.7502 0.0000
vt 0.7687 0.7071 0.0000
vt 0.8507 0.8329 0.0000
vt 0.8148 0.8506 0.0000
vt 0.7788 0.8329 0.0000
vt 0.7645 0.7916 0.0000
vt 0.8651 0.7916 0.0000
vt 0.4797 0.5300 0.0000
vt 0.4797 0.2280 0.0000
vt 0.5238 0.2280 0.0000
vt 0.5238 0.5300 0.0000
vt 0.9458 0.1649 0.0000
vt 0.9899 0.1649 0.0000
vt 0.9899 0.5300 0.0000
vt 0.9458 0.5300 0.0000
vt 0.5719 0.1831 0.0000
vt 0.7435 0.5425 0.0000
vt 0.7439 0.1831 0.0000
vt 0.5363 0.5425 0.0000
vt 0.5712 0.1083 0.0000
vt 0.7432 0.1083 0.0000
vt 0.7432 0.1524 0.0000
vt 0.5712 0.1524 0.0000
vt 0.5363 0.5867 0.0000
vt 0.5238 0.5867 0.0000
vt 0.5238 0.5425 0.0000
vt 0.9332 0.1524 0.0000
vt 0.9332 0.1083 0.0000
vt 0.9458 0.1083 0.0000
vt 0.9458 0.1524 0.0000
vt 0.0328 0.3103 0.0000
vt 0.0328 0.0593 0.0000
vt 0.0522 0.0406 0.0000
vt 0.3765 0.0593 0.0000
vt 0.3572 0.0406 0.0000
vt 0.3765 0.3103 0.0000
vt 0.3572 0.3290 0.0000
vt 0.0522 0.3290 0.0000
vt 0.0462 0.3437 0.0000
vt 0.0181 0.3166 0.0000
vt 0.0181 0.0530 0.0000
vt 0.0462 0.0259 0.0000
vt 0.3631 0.0259 0.0000
vt 0.3912 0.0530 0.0000
vt 0.3912 0.3166 0.0000
vt 0.3631 0.3437 0.0000
vt 0.7739 0.1524 0.0000
vt 0.7737 0.5425 0.0000
vt 0.7737 0.5867 0.0000
vt 0.7435 0.5867 0.0000
vt 0.9332 0.5425 0.0000
vt 0.9332 0.5867 0.0000
vt 0.9726 0.7799 0.0000
vt 0.9726 0.9921 0.0000
vt 0.9469 0.9921 0.0000
vt 0.9469 0.7799 0.0000
vt 0.9726 0.7413 0.0000
vt 0.9469 0.7413 0.0000
vt 0.9083 0.9921 0.0000
vt 0.9083 0.7547 0.0000
vt 0.8982 0.9148 0.0000
vt 0.8959 0.9490 0.0000
vt 0.8644 0.9434 0.0000
vt 0.8487 0.9129 0.0000
vt 0.8619 0.8566 0.0000
vt 0.8999 0.8575 0.0000
vt 0.8990 0.8920 0.0000
vt 0.8611 0.8910 0.0000
vt 0.9003 0.8412 0.0000
vt 0.8624 0.8402 0.0000
vt 0.8468 0.8469 0.0000
vt 0.8441 0.8640 0.0000
vt 0.8533 0.9048 0.0000
vt 0.8432 0.8984 0.0000
vt 0.8281 0.9568 0.0000
vt 0.7746 0.9451 0.0000
vt 0.8406 0.8488 0.0000
vt 0.7966 0.8836 0.0000
vt 0.7999 0.8704 0.0000
vt 0.7684 0.9310 0.0000
vt 0.7703 0.8563 0.0000
vt 0.7716 0.8442 0.0000
vt 0.8305 0.9943 0.0000
vt 0.5231 0.1524 0.0000
vt 0.5231 0.1083 0.0000
vt 0.9458 0.5425 0.0000
vt 0.9899 0.5425 0.0000
vt 0.7739 0.1083 0.0000
vt 0.8606 0.9073 0.0000
vt 0.8986 0.9083 0.0000
# 98 texture coords

g pckup_health_lg
s 8
f 1/1/1 2/2/2 3/3/2 4/4/1 
f 2/2/2 5/5/3 6/6/3 3/3/2 
f 7/7/4 8/8/4 6/6/3 5/5/3 
f 1/1/1 4/4/1 9/9/5 10/10/5 
s 1
f 4/11/6 3/12/6 6/13/6 8/14/6 
f 9/15/6 4/11/6 8/14/6 
s 8
f 11/1/7 12/4/7 13/3/8 14/2/8 
f 14/2/8 13/3/8 15/6/9 16/5/9 
f 7/7/4 16/5/9 15/6/9 8/8/4 
f 11/1/7 10/10/5 9/9/5 12/4/7 
s 1
f 15/13/6 13/12/6 12/11/6 8/14/6 
f 9/15/6 8/14/6 12/11/6 
s 2
f 17/16/10 18/17/10 19/18/10 20/19/10 
s 4
f 21/20/6 22/21/6 23/22/6 24/23/6 
s 8
f 20/19/11 19/18/11 25/24/11 26/25/11 
f 25/24/11 27/26/11 26/25/11 
f 28/27/11 20/19/11 26/25/11 
s 16
f 29/28/4 30/29/12 27/30/12 25/31/4 
s off
f 28/27/13 31/32/13 17/33/13 20/34/13 
f 32/35/14 33/36/14 22/37/14 21/38/14 
s 8
f 34/39/15 35/40/11 36/41/15 37/42/15 
f 36/41/15 38/43/15 37/42/15 
f 37/42/15 39/44/11 40/45/11 34/39/15 
f 41/46/15 34/39/15 40/45/11 
s off
f 42/47/16 43/48/16 34/39/16 41/46/16 
f 43/48/17 44/49/17 35/40/17 34/39/17 
f 44/49/18 45/50/18 36/41/18 35/40/18 
f 45/50/19 46/51/19 38/43/19 36/41/19 
f 46/51/20 47/52/20 37/42/20 38/43/20 
f 47/52/21 48/53/21 39/44/21 37/42/21 
f 48/53/22 49/54/22 40/45/22 39/44/22 
f 49/54/23 42/47/23 41/46/23 40/45/23 
s 8
f 50/55/11 51/56/15 26/25/11 27/26/11 
s 64
f 51/56/5 52/57/5 53/58/5 26/25/5 
s 8
f 32/35/15 21/20/11 24/23/11 51/56/15 
f 24/23/11 54/59/11 51/56/15 
f 50/55/11 32/35/15 51/56/15 
s 64
f 54/59/5 55/60/5 52/57/5 51/56/5 
s 16
f 56/61/4 57/62/4 58/63/4 59/64/4 
s off
f 60/65/24 56/61/24 59/64/24 61/66/24 
f 62/67/11 61/68/11 59/64/11 58/63/11 
s 2
f 63/69/25 64/70/25 65/71/25 66/72/25 
s 4
f 67/73/26 68/74/26 69/75/26 70/76/26 
s 16
f 64/77/27 68/74/27 67/73/27 65/78/27 
s off
f 65/79/28 67/73/28 71/80/28 
f 70/76/29 66/81/29 72/82/29 
f 65/71/8 73/83/8 74/84/8 66/72/8 
f 65/85/30 71/80/30 75/86/30 73/87/30 
f 71/80/11 72/82/11 76/88/11 75/86/11 
f 72/82/31 66/72/31 74/84/31 76/88/31 
f 71/80/32 67/73/32 70/76/32 72/82/32 
f 77/89/33 78/90/33 73/87/33 75/86/33 
f 73/83/8 78/91/8 74/84/8 
f 76/88/11 77/89/11 75/86/11 
s 64
f 28/27/5 26/25/5 53/58/5 31/32/5 
s off
f 25/31/34 19/92/34 18/93/34 29/28/34 
f 54/94/35 24/23/35 23/22/35 55/95/35 
s 16
f 50/55/12 27/30/12 30/29/12 79/96/12 
f 32/35/4 50/55/12 79/96/12 33/36/4 
s 64
f 66/97/36 70/76/36 69/75/36 63/98/36 
s 2
f 17/16/10 80/19/10 81/18/10 18/17/10 
s 4
f 82/20/6 83/23/6 23/22/6 22/21/6 
s 8
f 84/25/8 85/26/8 86/24/8 80/19/8 
f 86/24/8 81/18/8 80/19/8 
f 87/27/8 84/25/8 80/19/8 
s 16
f 29/28/4 86/31/4 85/30/12 30/29/12 
s off
f 87/27/13 80/34/13 17/33/13 31/32/13 
f 88/35/14 82/38/14 22/37/14 33/36/14 
s 8
f 89/45/8 90/44/8 91/42/37 92/39/8 
f 91/42/37 93/43/38 94/41/37 92/39/8 
f 94/41/37 95/40/37 92/39/8 
f 96/46/37 89/45/8 92/39/8 
s off
f 97/47/39 96/46/39 92/39/39 98/48/39 
f 98/48/40 92/39/40 95/40/40 99/49/40 
f 99/49/41 95/40/41 94/41/41 100/50/41 
f 100/50/42 94/41/42 93/43/42 101/51/42 
f 101/51/43 93/43/43 91/42/43 102/52/43 
f 102/52/44 91/42/44 90/44/44 103/53/44 
f 103/53/45 90/44/45 89/45/45 104/54/45 
f 104/54/46 89/45/46 96/46/46 97/47/46 
s 8
f 105/55/8 85/26/8 84/25/8 106/56/8 
s 64
f 106/56/5 84/25/5 53/58/5 52/57/5 
s 8
f 106/56/8 107/59/8 83/23/8 88/35/8 
f 83/23/8 82/20/8 88/35/8 
f 105/55/8 106/56/8 88/35/8 
s 64
f 107/59/5 106/56/5 52/57/5 55/60/5 
s 16
f 56/61/4 108/64/4 109/63/4 57/62/4 
s off
f 60/65/47 110/66/47 108/64/47 56/61/47 
f 111/67/8 109/63/8 108/64/8 110/68/8 
s 2
f 63/69/25 112/72/25 113/71/25 64/70/25 
s 4
f 114/73/26 115/76/26 69/75/26 68/74/26 
s 16
f 64/77/27 113/78/27 114/73/27 68/74/27 
s off
f 113/79/48 116/80/48 114/73/48 
f 115/76/49 117/82/49 112/81/49 
f 113/71/15 112/72/15 118/84/15 119/83/15 
f 113/85/50 119/87/50 120/86/50 116/80/50 
f 116/80/8 120/86/8 121/88/8 117/82/8 
f 117/82/51 121/88/51 118/84/51 112/72/51 
f 116/80/52 117/82/52 115/76/52 114/73/52 
f 122/89/53 120/86/53 119/87/53 123/90/53 
f 119/83/15 118/84/15 123/91/15 
f 121/88/8 120/86/8 122/89/8 
s 64
f 87/27/5 31/32/5 53/58/5 84/25/5 
s off
f 86/31/34 29/28/34 18/93/34 81/92/34 
f 107/94/35 55/95/35 23/22/35 83/23/35 
s 16
f 105/55/12 79/96/12 30/29/12 85/30/12 
f 88/35/4 33/36/4 79/96/12 105/55/12 
s 64
f 112/97/36 63/98/36 69/75/36 115/76/36 
# 86 polygons - 22 triangles

